<svg xmlns="http://www.w3.org/2000/svg" viewBox="0 0 24 24" fill="#fc3c44"><path d="M23.994 6.124a9.23 9.23 0 00-.24-2.19c-.317-1.31-1.062-2.31-2.18-3.043a5.022 5.022 0 00-1.877-.726 10.496 10.496 0 00-1.564-.15c-.04-.003-.083-.01-.124-.013H5.986c-.152.01-.303.017-.455.026-.747.043-1.49.123-2.193.4-1.336.53-2.3 1.452-2.865 2.78-.192.448-.292.925-.363 1.408-.056.392-.088.785-.1 1.18 0 .032-.007.062-.01.093v12.223c.01.14.017.283.027.424.05.815.154 1.624.497 2.373.65 1.42 1.738 2.353 3.234 2.802.42.127.856.187 1.293.228.555.053 1.11.06 1.667.06h11.03a12.5 12.5 0 001.57-.1c.822-.106 1.596-.35 2.296-.81a5.046 5.046 0 001.88-2.207c.186-.42.293-.87.37-1.324.113-.675.138-1.358.137-2.04-.002-3.8 0-7.595-.003-11.393zm-6.423 3.99v5.712c0 .417-.058.827-.244 1.206-.29.59-.76.962-1.388 1.14-.35.1-.706.157-1.07.173-.95.042-1.775-.404-2.13-1.322-.277-.715-.12-1.39.36-1.985.34-.42.796-.658 1.31-.797.378-.1.77-.16 1.15-.25.2-.05.39-.12.55-.26.12-.1.19-.24.2-.4.01-.06.01-.12.01-.18V8.87c0-.2-.04-.39-.2-.53-.18-.16-.4-.2-.63-.16-.07.01-.13.03-.2.04l-4.37.95c-.29.06-.56.15-.79.37-.18.17-.27.4-.28.65v.05l-.01 7.36c0 .42-.04.83-.21 1.22-.28.63-.77 1.01-1.42 1.2-.35.1-.71.15-1.07.17-.94.04-1.77-.4-2.13-1.32-.28-.72-.12-1.4.36-1.99.34-.42.8-.66 1.31-.8.37-.1.75-.15 1.13-.24.22-.05.43-.13.6-.28.13-.12.2-.27.21-.44 0-.06.01-.12.01-.18V7.37c0-.3.06-.58.22-.84.21-.33.51-.55.87-.65l5.73-1.33c.38-.09.77-.17 1.16-.22.42-.05.81.02 1.16.26.3.2.49.49.56.84.04.17.05.35.05.53v4.15z"/></svg>